<?xml version="1.0" standalone="no"?>
<!DOCTYPE svg PUBLIC "-//W3C//DTD SVG 20010904//EN"
 "http://www.w3.org/TR/2001/REC-SVG-20010904/DTD/svg10.dtd">
<svg version="1.0" xmlns="http://www.w3.org/2000/svg"
 width="1024.000000pt" height="1024.000000pt" viewBox="0 0 1024.000000 1024.000000"
 preserveAspectRatio="xMidYMid meet">

<g transform="translate(0.000000,1024.000000) scale(0.100000,-0.100000)"
fill="#000000" stroke="none">
<path d="M0 5120 l0 -5120 5120 0 5120 0 0 5120 0 5120 -5120 0 -5120 0 0
-5120z m5431 4075 c514 -60 1026 -280 1418 -610 237 -200 551 -570 551 -650 0
-21 -9 -43 -22 -58 -13 -14 -147 -108 -299 -210 -308 -205 -323 -212 -424
-183 -47 14 -62 26 -117 88 -104 119 -239 256 -308 313 -254 207 -577 348
-899 391 -479 63 -965 -75 -1344 -383 -98 -80 -252 -245 -330 -354 -81 -114
-206 -359 -247 -489 -17 -52 -43 -151 -58 -220 -25 -117 -26 -142 -27 -375 0
-223 3 -263 23 -365 99 -488 379 -908 793 -1188 212 -143 526 -255 792 -283
154 -16 425 -6 549 20 403 87 716 291 1014 662 63 78 106 122 131 135 49 24
146 24 190 1 68 -36 573 -389 583 -407 19 -35 10 -68 -41 -145 -340 -521 -856
-908 -1449 -1088 -267 -81 -479 -112 -775 -112 -447 0 -792 81 -1206 281
l-155 76 -160 -61 c-691 -262 -670 -255 -713 -231 -10 5 -24 22 -30 38 -12 29
-3 92 105 674 19 103 34 196 34 207 0 12 -42 83 -94 159 -282 413 -421 767
-492 1247 -25 165 -25 557 -1 740 88 661 394 1252 875 1688 438 397 970 636
1547 696 136 14 451 12 586 -4z m-208 -1461 c47 -24 872 -473 1143 -622 61
-34 118 -70 127 -80 29 -32 31 -73 5 -111 -23 -35 -37 -43 -758 -433 -113 -61
-275 -150 -360 -197 l-155 -86 -90 0 -90 0 -420 229 c-231 126 -439 239 -462
252 l-43 24 0 -552 c0 -636 8 -588 -95 -588 -39 0 -67 5 -73 13 -12 14 -21
411 -22 924 l0 302 -82 43 c-93 49 -122 84 -114 137 3 18 13 42 22 52 15 16
272 157 1084 593 267 144 286 149 383 100z m-664 -1462 c113 -63 249 -139 302
-168 117 -65 186 -84 299 -84 146 0 153 3 539 219 140 79 266 147 279 152 18
7 31 5 49 -6 l24 -16 -3 -198 -3 -198 -42 -84 c-111 -223 -350 -381 -653 -430
-36 -6 -121 -10 -190 -10 -205 0 -342 31 -501 112 -174 89 -300 221 -360 374
-20 53 -23 81 -27 246 -4 186 -4 187 19 203 14 9 32 13 43 10 11 -4 112 -58
225 -122z m-2959 -3139 c271 -581 426 -901 432 -895 4 4 50 97 102 207 52 110
157 333 234 495 l140 295 156 3 c120 2 157 0 161 -10 2 -7 11 -103 20 -213 9
-110 38 -459 66 -775 27 -316 52 -608 56 -647 l6 -73 -176 0 -176 0 -5 33 c-6
36 -28 342 -51 722 -8 138 -18 270 -21 295 l-6 45 -33 -81 c-17 -44 -103 -230
-190 -412 l-158 -332 -132 0 -132 0 -41 88 c-22 48 -93 197 -157 332 -65 135
-132 283 -150 329 l-32 83 -7 -73 c-3 -41 -17 -283 -32 -539 -14 -256 -27
-471 -29 -477 -3 -10 -49 -13 -184 -13 l-180 0 5 33 c2 17 33 399 70 847 36
448 67 821 70 828 2 9 44 12 164 12 l160 0 50 -107z m4840 -203 l0 -180 164 0
163 0 7 -46 c3 -26 6 -89 6 -140 l0 -94 -171 0 -170 0 3 -303 c3 -269 5 -306
21 -330 35 -54 60 -62 196 -62 l126 0 7 -35 c4 -19 7 -74 7 -122 l1 -87 -37
-11 c-70 -19 -218 -32 -303 -27 -156 10 -261 71 -317 185 l-28 57 -3 368 -3
367 -92 0 -92 0 1 138 1 137 91 3 92 3 0 179 0 180 165 0 165 0 0 -180z
m-2525 -155 c33 -8 94 -32 135 -52 133 -64 262 -220 299 -360 20 -74 32 -197
25 -260 l-6 -63 -440 0 -441 0 7 -41 c9 -58 49 -130 90 -167 97 -85 326 -86
515 -1 35 16 66 27 68 25 3 -2 36 -48 74 -103 79 -112 82 -100 -34 -159 -170
-87 -368 -125 -536 -105 -270 33 -449 186 -523 448 -29 102 -31 304 -5 403 77
287 294 448 607 449 63 1 130 -5 165 -14z m1587 -28 c87 -43 152 -107 193
-192 48 -96 54 -172 55 -622 l0 -413 -160 0 c-88 0 -163 -1 -167 -2 -5 -2 -10
179 -13 402 -5 387 -6 407 -26 451 -28 59 -77 97 -148 111 -144 31 -286 -57
-315 -193 -7 -30 -11 -193 -11 -414 l0 -365 -165 0 -165 0 0 625 0 625 149 0
149 0 7 -75 7 -75 42 43 c89 95 215 139 387 134 99 -2 110 -4 181 -40z m3228
17 c130 -39 217 -112 271 -228 53 -113 59 -175 59 -622 l0 -404 -155 0 -155 0
0 76 0 77 -50 -47 c-104 -97 -289 -151 -439 -127 -41 6 -99 22 -128 36 -71 32
-156 115 -190 184 -25 51 -28 66 -28 166 0 96 3 116 24 160 52 105 152 173
311 210 53 13 132 19 273 23 l197 4 0 47 c0 62 -35 130 -80 156 -27 15 -58 21
-138 23 -117 5 -186 -6 -320 -50 -51 -17 -94 -29 -96 -27 -8 9 -106 209 -106
217 0 26 265 122 390 142 82 13 295 4 360 -16z m-920 -143 l0 -158 -97 -6
c-174 -10 -263 -52 -315 -148 -23 -44 -23 -48 -26 -421 l-3 -378 -169 0 -170
0 0 625 0 625 155 0 155 0 1 -87 c0 -73 2 -85 12 -69 23 37 101 118 129 132
53 28 134 43 231 43 l97 1 0 -159z"/>
<path d="M3678 2507 c-101 -29 -164 -102 -184 -209 l-6 -38 266 0 266 0 0 26
c0 88 -57 179 -131 208 -57 23 -154 29 -211 13z"/>
<path d="M8439 2040 c-76 -9 -139 -38 -163 -75 -23 -35 -24 -116 -3 -149 28
-42 74 -61 152 -60 85 0 137 14 196 53 67 46 93 91 97 172 l4 69 -108 -1 c-60
-1 -139 -5 -175 -9z"/>
</g>
</svg>
